<?xml version="1.0" standalone="no"?>
<!DOCTYPE svg PUBLIC "-//W3C//DTD SVG 20010904//EN"
 "http://www.w3.org/TR/2001/REC-SVG-20010904/DTD/svg10.dtd">
<svg version="1.0" xmlns="http://www.w3.org/2000/svg"
 width="700.000000pt" height="700.000000pt" viewBox="0 0 700.000000 700.000000"
 preserveAspectRatio="xMidYMid meet">
<metadata>
Created by potrace 1.11, written by Peter Selinger 2001-2013
</metadata>
<g transform="translate(0.000000,700.000000) scale(0.100000,-0.100000)"
fill="#000000" stroke="none">
<path d="M0 3500 l0 -3500 3500 0 3500 0 0 3500 0 3500 -3500 0 -3500 0 0
-3500z m1750 1315 l0 -875 875 0 875 0 0 875 0 875 438 -2 437 -3 0 -2185 0
-2185 -437 -3 -438 -2 0 875 0 875 -875 0 -875 0 0 -875 0 -875 -437 2 -438 3
-3 2175 c-1 1196 0 2181 3 2188 3 9 101 12 440 12 l435 0 0 -875z m4375 -1315
l0 -2185 -437 -3 -438 -2 0 2190 0 2190 438 -2 437 -3 0 -2185z"/>
</g>
</svg>
